<svg xmlns="http://www.w3.org/2000/svg" width="14" height="14" viewBox="0 0 14 14"><defs><style>.a{fill:#d4d4d4;}</style></defs><g transform="translate(-105 -4.003)"><path class="a" d="M13.689,12.169,10.8,9.283a5.762,5.762,0,0,0,1.043-3.357,5.818,5.818,0,0,0-.467-2.3A5.8,5.8,0,0,0,8.224.47a5.9,5.9,0,0,0-4.6,0A5.8,5.8,0,0,0,.467,3.625a5.9,5.9,0,0,0,0,4.6,5.8,5.8,0,0,0,3.155,3.155,5.821,5.821,0,0,0,2.3.467A5.762,5.762,0,0,0,9.28,10.806l2.886,2.877a1,1,0,0,0,.757.32,1.077,1.077,0,0,0,.766-1.834Zm-5.1-3.58A3.63,3.63,0,0,1,5.923,9.7,3.63,3.63,0,0,1,3.26,8.589,3.63,3.63,0,0,1,2.154,5.926,3.63,3.63,0,0,1,3.26,3.263,3.63,3.63,0,0,1,5.923,2.157,3.631,3.631,0,0,1,8.586,3.263,3.63,3.63,0,0,1,9.692,5.926,3.63,3.63,0,0,1,8.586,8.589Z" transform="translate(105 4)"/></g></svg>